<svg xmlns="http://www.w3.org/2000/svg" width="28.984" height="24.843" viewBox="0 0 28.984 24.843"><defs><style>.a{fill:#707070;}</style></defs><path class="a" d="M28.984,66.07A2.068,2.068,0,0,0,26.914,64H2.07a2.07,2.07,0,1,0,0,4.141H26.914A2.068,2.068,0,0,0,28.984,66.07Zm0,10.351a2.068,2.068,0,0,0-2.07-2.07H13.8a2.07,2.07,0,1,0,0,4.141H26.914A2.068,2.068,0,0,0,28.984,76.422ZM0,86.773a2.068,2.068,0,0,0,2.07,2.07H26.914a2.07,2.07,0,0,0,0-4.141H2.07A2.068,2.068,0,0,0,0,86.773Z" transform="translate(0 -64)"/></svg>