<svg xmlns="http://www.w3.org/2000/svg" width="28.984" height="24.843" viewBox="0 0 28.984 24.843"><defs><style>.a{fill:#707070;}</style></defs><path class="a" d="M0,66.07A2.068,2.068,0,0,1,2.07,64H26.914a2.07,2.07,0,1,1,0,4.141H2.07A2.068,2.068,0,0,1,0,66.07ZM0,76.422a2.068,2.068,0,0,1,2.07-2.07H15.182a2.07,2.07,0,1,1,0,4.141H2.07A2.068,2.068,0,0,1,0,76.422ZM28.984,86.773a2.068,2.068,0,0,1-2.07,2.07H2.07a2.07,2.07,0,0,1,0-4.141H26.914A2.068,2.068,0,0,1,28.984,86.773Z" transform="translate(0 -64)"/></svg>