<svg xmlns="http://www.w3.org/2000/svg" width="24.719" height="21.667" viewBox="0 0 24.719 21.667"><defs><style>.a{fill:#ff404d;}</style></defs><path class="a" d="M12.38,32C5.542,32,0,36.5,0,42.06a8.863,8.863,0,0,0,2.559,6.1A12.187,12.187,0,0,1,.317,51.706a1.162,1.162,0,0,0,.843,1.961A11.891,11.891,0,0,0,7.887,51.43a14.822,14.822,0,0,0,4.493.689c6.839,0,12.338-4.5,12.338-10.06S19.219,32,12.38,32Zm0,17.8a12.549,12.549,0,0,1-3.791-.586l-1.1-.345-.943.665a10.349,10.349,0,0,1-2.781,1.4,11.937,11.937,0,0,0,.961-1.947l.514-1.354-1-1.058A6.663,6.663,0,0,1,2.324,42.06c0-4.268,4.51-7.738,10.06-7.738s10.06,3.47,10.06,7.738S17.932,49.8,12.385,49.8Z" transform="translate(0.001 -32)"/></svg>