<svg xmlns="http://www.w3.org/2000/svg" xmlns:xlink="http://www.w3.org/1999/xlink" width="21.725" height="20.5" viewBox="0 0 21.725 20.5"><defs><style>.a{fill:none;}.b{clip-path:url(#a);}.c{fill:#ff404d;}</style><clipPath id="a"><rect class="a" width="21.725" height="20.5"/></clipPath></defs><g class="b"><path class="c" d="M10.872,0q4.237,0,8.474,0A2.178,2.178,0,0,1,21.5,1.343a2.162,2.162,0,0,1-.4,2.469c-1.079,1.21-2.177,2.4-3.267,3.6q-2.014,2.217-4.033,4.43a.516.516,0,0,0-.123.39c0,1.362-.006,2.724.005,4.086a1.029,1.029,0,0,1-.415.886q-1.917,1.516-3.818,3.052a.847.847,0,0,1-.954.156.834.834,0,0,1-.471-.84c.007-2.441,0-4.881.006-7.321a.638.638,0,0,0-.178-.469Q4.283,7.868.719,3.943A2.291,2.291,0,0,1,.521.826,2.143,2.143,0,0,1,2.248,0Q6.56,0,10.872,0M9.671,17.94c.113-.083.182-.129.246-.181.638-.514,1.271-1.034,1.914-1.539a.5.5,0,0,0,.216-.442c-.008-1.346,0-2.691-.007-4.036a1.014,1.014,0,0,1,.275-.728q1.31-1.434,2.614-2.874,2.451-2.7,4.9-5.4a.648.648,0,0,0,.149-.717.626.626,0,0,0-.6-.38c-.066-.005-.133,0-.2,0H2.535a2.072,2.072,0,0,0-.275.009.624.624,0,0,0-.554.408.618.618,0,0,0,.156.668q1.634,1.8,3.266,3.6,2.106,2.32,4.217,4.635a1.217,1.217,0,0,1,.334.883c-.011,1.922-.005,3.844-.005,5.766Z" transform="translate(0 0)"/></g></svg>