<svg xmlns="http://www.w3.org/2000/svg" width="22" height="18.814" viewBox="0 0 22 18.814"><defs><style>.a{fill:#ff404d;}</style></defs><g transform="translate(-79 -430.137)"><path class="a" d="M10.484,43.95l.477.516.516-.515a6.251,6.251,0,0,1,5.393-1.715A6.14,6.14,0,0,1,22,48.295v.249a6.428,6.428,0,0,1-2.045,4.705L12.19,60.5a1.747,1.747,0,0,1-2.38,0L2.045,53.249A6.434,6.434,0,0,1,0,48.544v-.249A6.142,6.142,0,0,1,10.484,43.95c-.039,0,0,0,0,0Zm.477,3.433L9.028,45.373a4.17,4.17,0,0,0-3.558-1.1,4.08,4.08,0,0,0-3.407,4.024v.249a4.369,4.369,0,0,0,1.39,3.2L11,58.788l7.55-7.047a4.373,4.373,0,0,0,1.388-3.2v-.249A4.082,4.082,0,0,0,16.53,44.27a4.17,4.17,0,0,0-3.558,1.1Z" transform="translate(79 387.984)"/></g></svg>