<svg xmlns="http://www.w3.org/2000/svg" xmlns:xlink="http://www.w3.org/1999/xlink" width="20.787" height="18.914" viewBox="0 0 20.787 18.914"><defs><style>.a{fill:none;}.b{clip-path:url(#a);}.c{fill:#ff404d;}</style><clipPath id="a"><rect class="a" width="20.787" height="18.914"/></clipPath></defs><g transform="translate(0 0)"><g class="b" transform="translate(0 0)"><path class="c" d="M6.674,3.378a.578.578,0,0,0-.023.281q0,7.089,0,14.179a.971.971,0,0,1-.832,1.055.956.956,0,0,1-1.091-.844c-.007-.1,0-.206,0-.309V3.371c-.115.015-.161.1-.219.155Q3.12,4.906,1.74,6.29a1.019,1.019,0,0,1-1,.332A.957.957,0,0,1,.176,5.136a1.609,1.609,0,0,1,.189-.215Q2.636,2.647,4.909.375A.98.98,0,0,1,6.441.362Q8.726,2.637,11,4.921a.993.993,0,0,1,.3,1.025.91.91,0,0,1-.722.672.974.974,0,0,1-.94-.313q-1.388-1.391-2.78-2.78c-.054-.054-.1-.131-.188-.147" transform="translate(0 0)"/><path class="c" d="M23.229,15.6a.682.682,0,0,0,.045-.338q0-7.09,0-14.179A.969.969,0,0,1,24.111.029.955.955,0,0,1,25.2.877c.008.1,0,.206,0,.309v14.37a.412.412,0,0,0,.221-.16q1.384-1.381,2.764-2.764a1.012,1.012,0,0,1,1-.329.958.958,0,0,1,.547,1.506,2.157,2.157,0,0,1-.223.244L25.059,18.5a1.006,1.006,0,0,1-1.626.007q-2.242-2.24-4.482-4.482a1,1,0,0,1-.129-1.42.956.956,0,0,1,1.43-.018q1.179,1.165,2.344,2.342c.207.208.406.424.634.664" transform="translate(-9.136 -0.007)"/></g></g></svg>