<?xml version="1.0" encoding="UTF-8"?><svg id="Warstwa_2" xmlns="http://www.w3.org/2000/svg" viewBox="0 0 138.18 112.55"><defs><style>.cls-1{fill:#231f20;}</style></defs><g id="Warstwa_1-2"><path class="cls-1" d="m72.83,87.31c-.28,0-.51-.09-.7-.29-.19-.19-.28-.42-.28-.7v-12.86c0-.29.09-.53.28-.71s.42-.28.7-.28h3.78c.95,0,1.78.21,2.52.63.73.42,1.3,1,1.71,1.74.41.74.62,1.59.62,2.56s-.21,1.75-.62,2.47c-.41.72-.98,1.29-1.71,1.69-.73.41-1.57.61-2.52.61h-2.8v4.16c0,.28-.09.51-.27.7-.18.19-.42.29-.71.29Zm.98-6.97h2.8c.58,0,1.09-.13,1.53-.38.44-.25.79-.6,1.04-1.05.25-.44.38-.95.38-1.52,0-.61-.13-1.14-.38-1.61-.25-.46-.6-.83-1.04-1.09-.44-.27-.95-.4-1.53-.4h-2.8v6.04Z"/><path class="cls-1" d="m90.45,87.5c-1.11,0-2.12-.19-3.04-.56-.92-.37-1.71-.9-2.37-1.58s-1.18-1.48-1.54-2.41c-.37-.93-.55-1.95-.55-3.07s.18-2.13.55-3.06c.37-.92.88-1.73,1.54-2.4s1.45-1.2,2.37-1.58c.92-.37,1.94-.56,3.04-.56s2.12.19,3.04.56c.91.37,1.71.9,2.37,1.58.67.68,1.19,1.48,1.55,2.4.37.92.55,1.94.55,3.06s-.18,2.14-.55,3.07c-.37.93-.88,1.74-1.55,2.41-.67.68-1.46,1.2-2.37,1.58-.91.37-1.93.56-3.04.56Zm0-1.79c.82,0,1.57-.15,2.26-.45.69-.3,1.28-.71,1.79-1.23s.89-1.14,1.16-1.85.41-1.48.41-2.3-.13-1.59-.41-2.3c-.27-.71-.66-1.33-1.16-1.85-.5-.53-1.1-.93-1.79-1.23-.69-.29-1.44-.44-2.26-.44s-1.57.15-2.26.44c-.69.29-1.28.7-1.78,1.23-.5.53-.89,1.14-1.16,1.85-.28.71-.42,1.48-.42,2.3s.14,1.59.42,2.3.67,1.33,1.16,1.85,1.09.94,1.78,1.23c.69.3,1.44.45,2.26.45Z"/><path class="cls-1" d="m102.02,87.31c-.28,0-.51-.09-.7-.29-.19-.19-.28-.42-.28-.7v-12.86c0-.29.09-.53.28-.71s.42-.28.7-.28h3.42c1.08,0,2.07.18,2.96.54.89.36,1.66.87,2.32,1.54s1.16,1.45,1.51,2.35c.35.9.53,1.89.53,2.98s-.18,2.09-.53,2.99c-.35.91-.86,1.69-1.51,2.36s-1.43,1.18-2.32,1.54c-.89.36-1.88.54-2.96.54h-3.42Zm.98-1.75h2.44c1.06,0,2-.24,2.81-.73s1.45-1.16,1.92-2.01c.47-.86.7-1.83.7-2.94s-.23-2.1-.7-2.95c-.47-.85-1.11-1.51-1.92-2s-1.75-.72-2.81-.72h-2.44v11.34Z"/><path class="cls-1" d="m114.88,87.31c-.35,0-.62-.15-.81-.46-.19-.3-.21-.63-.06-.97l5.31-12.75c.19-.44.5-.67.93-.67.45,0,.76.22.93.67l5.33,12.79c.14.35.12.67-.07.96-.18.29-.46.43-.82.43-.19,0-.37-.05-.54-.16-.17-.11-.29-.26-.37-.45l-4.69-11.7h.53l-4.77,11.7c-.09.2-.22.36-.39.46-.17.1-.34.15-.52.15Zm1-3.27l.76-1.63h7.41l.76,1.63h-8.93Z"/><path class="cls-1" d="m132.26,87.5c-.88,0-1.67-.19-2.35-.58-.69-.39-1.22-.92-1.61-1.62-.38-.69-.58-1.48-.58-2.37,0-.29.09-.53.28-.71s.42-.28.7-.28.53.09.71.28c.18.18.27.42.27.71,0,.54.11,1.03.33,1.44s.52.74.91.98c.38.23.83.35,1.33.35s.95-.12,1.34-.35.7-.56.92-.98.33-.9.33-1.44v-9.48c0-.29.09-.53.27-.71.18-.18.41-.28.69-.28s.53.09.72.28c.19.18.28.42.28.71v9.48c0,.89-.2,1.68-.59,2.37-.39.69-.93,1.23-1.61,1.62-.68.39-1.47.58-2.36.58Z"/><path class="cls-1" d="m73.05,107.31c-.28,0-.51-.09-.7-.29-.19-.19-.28-.42-.28-.7v-4.1l-.23.25c-.19.19-.41.29-.66.29-.28,0-.52-.1-.72-.29-.2-.19-.3-.42-.3-.7s.09-.49.28-.68l1.63-1.63v-5.98c0-.29.09-.53.28-.71.19-.18.42-.28.7-.28s.51.09.7.28c.19.18.28.42.28.71v4.05l2.31-2.22c.1-.1.21-.17.33-.22.12-.04.24-.07.37-.07.28,0,.51.1.7.31.19.21.28.44.28.69s-.09.49-.28.68l-3.71,3.57v5.07h6.85c.28,0,.51.09.7.28.19.19.28.42.28.7s-.09.51-.28.7c-.19.19-.42.29-.7.29h-7.83Z"/><path class="cls-1" d="m84.74,107.31c-.35,0-.62-.15-.81-.46-.19-.3-.21-.63-.06-.97l5.31-12.75c.19-.44.5-.67.93-.67.45,0,.76.22.93.67l5.33,12.79c.14.35.12.67-.07.96-.18.29-.46.43-.82.43-.19,0-.37-.05-.54-.16-.17-.11-.29-.26-.37-.45l-4.69-11.7h.53l-4.77,11.7c-.09.2-.22.36-.39.46-.17.1-.34.15-.52.15Zm1-3.27l.76-1.63h7.41l.76,1.63h-8.93Z"/><path class="cls-1" d="m100.53,107.31c-.28,0-.51-.09-.7-.29-.19-.19-.28-.42-.28-.7v-12.86c0-.29.09-.53.28-.71s.42-.28.7-.28h3.78c.95,0,1.78.21,2.52.63.73.42,1.3,1,1.71,1.74.41.74.62,1.59.62,2.56s-.21,1.75-.62,2.47c-.41.72-.98,1.29-1.71,1.69-.73.41-1.57.61-2.52.61h-2.8v4.16c0,.28-.09.51-.27.7-.18.19-.42.29-.71.29Zm.98-6.97h2.8c.58,0,1.09-.13,1.53-.38.44-.25.79-.6,1.04-1.05.25-.44.38-.95.38-1.52,0-.61-.13-1.14-.38-1.61-.25-.46-.6-.83-1.04-1.09-.44-.27-.95-.4-1.53-.4h-2.8v6.04Z"/><path class="cls-1" d="m113.24,107.31c-.26,0-.49-.09-.69-.29-.2-.19-.29-.42-.29-.7v-12.86c0-.28.1-.51.29-.7.2-.19.42-.29.69-.29s.51.09.7.29c.19.19.28.42.28.7v5.7l6.26-6.29c.15-.15.29-.26.42-.31.13-.06.26-.08.4-.08.31,0,.54.09.68.29.14.19.19.42.15.67-.04.26-.16.5-.36.71l-4.82,4.86,4.92,6.73c.15.22.21.45.19.69s-.11.46-.26.63-.35.26-.6.26c-.35,0-.62-.14-.81-.42l-4.78-6.52-1.36,1.37v4.58c0,.28-.09.51-.28.7-.19.19-.42.29-.7.29Z"/><path class="cls-1" d="m126.78,107.31c-.28,0-.51-.09-.7-.29-.19-.19-.28-.42-.28-.7v-12.86c0-.29.09-.53.28-.71s.42-.28.7-.28h8.55c.29,0,.52.08.7.26.18.17.26.4.26.67s-.09.48-.26.65c-.18.16-.41.25-.7.25h-7.56v4.62h5.43c.29,0,.52.09.7.26.18.17.26.39.26.66s-.09.48-.26.66c-.18.17-.41.26-.7.26h-5.43v4.75h7.56c.29,0,.52.08.7.25.18.17.26.38.26.65s-.09.5-.26.67c-.18.17-.41.26-.7.26h-8.55Zm9.04,5.24c-.43,0-.82-.11-1.17-.32s-.64-.5-.86-.86-.33-.76-.33-1.19c0-.75.33-1.39.98-1.94.14-.1.25-.21.33-.31s.15-.21.2-.29c.18-.34.46-.51.85-.51.26,0,.49.09.67.27.18.18.28.41.29.68,0,.29-.1.58-.3.86-.2.29-.5.57-.91.87-.06.05-.11.11-.14.18-.03.07-.05.14-.05.2,0,.13.04.23.12.31.08.08.19.12.31.12.05,0,.09,0,.13-.02.04-.01.07-.03.09-.06l.59-.44c.19-.13.38-.19.59-.19.29,0,.52.09.7.28.18.18.26.41.26.69,0,.3-.11.56-.34.78l-.72.48c-.39.28-.83.42-1.3.42Z"/><path class="cls-1" d="m60.4,82.8h-.01c-19.14,1.22-22.95.42-24.31-10.65.03-2.6.13-5.08.29-7.44,3.12-46.09,29.66-46.58,35.73-49.79.09,0,.17,0,.24.01l-.02.34c-2.99,1.42-22.4,11.34-21.63,27.56-5.55,8.52-6.3,9.65-6.3,9.65l2.94,2.1s-4.37,10.53,13.11,10.39c1.9.64,3.15,1.81,3.95,3.23,2.66,4.69.43,12.1.43,12.1,0,0-1.35,2.34-3.24,2.44-.86.05-1.14.06-1.18.06Z"/><path class="cls-1" d="m63.66,49.29c.98-.08.97,1.44,0,1.53-3.07.27-6.09.94-9,1.96-.93.33-1.32-1.14-.4-1.47,3.04-1.07,6.19-1.73,9.4-2.02Z"/><path class="cls-1" d="m63.6,55.63c.87.47.09,1.78-.77,1.32-1.98-1.06-4.31-1.37-6.5-.85-.95.22-1.36-1.25-.4-1.47,2.59-.62,5.32-.26,7.67,1Z"/><path class="cls-1" d="m61.44,59.6c.34.23.49.67.27,1.05-.2.34-.7.5-1.04.27-.74-.49-1.43-.82-2.25-1.06-.86-.25-1.57-.33-2.46-.3-.43.01-.75-.36-.77-.77,0-.42.37-.75.77-.76,1.93-.06,3.87.5,5.48,1.57Z"/><path class="cls-1" d="m8.87,37.89s2.67,8.38-6.77,10.62c0-.02,0-.04,0-.06-.44-2.27-.97-8.4-.97-8.4l6.09-1.82,1.66-.34Z"/><path class="cls-1" d="m36.68,65.84c-.1,0-.2-.01-.3-.04-.06-.02-.12-.03-.17-.04-3.24-.79-7.37-.79-13.08-.8-1.42,0-2.93,0-4.54-.02-11.41-.08-15.82-8.85-17.52-16.19-.13-.57.22-1.14.8-1.27.57-.13,1.14.22,1.28.8,1.52,6.6,5.44,14.47,15.46,14.55,1.61.01,3.11.02,4.53.02,5.86,0,10.1.01,13.5.84.11.02.24.05.36.08.56.17.88.76.72,1.32-.14.46-.56.76-1.02.76Z"/><path class="cls-1" d="m2.09,49.51c-.48,0-.92-.33-1.04-.82C.22,45.08.08,41.92.03,40.73c0-.19-.01-.33-.02-.4-.17-1.81,2.02-2.27,10.16-4,3.51-.74,7.84-1.66,13-2.92,4.83-13.3,15.32-17.68,15.77-17.86,5.08-2.39,19.46-2.31,30.62-1.82.87.03,1.6.07,2.18.1l.42.02c.09,0,.2,0,.3.01.54.06.97.51.97,1.06,0,.59-.46,1.06-1.04,1.06l-.76-.03c-.57-.03-1.29-.07-2.15-.1-15.44-.68-25.98-.1-29.68,1.64-.16.06-10.4,4.38-14.81,17.15l-.19.55-.56.14c-5.43,1.33-9.97,2.3-13.62,3.07-3.84.81-7.48,1.59-8.46,2.11,0,.04,0,.08,0,.12.05,1.13.18,4.15.97,7.57.13.57-.23,1.14-.8,1.27-.08.02-.16.03-.24.03Z"/><path class="cls-1" d="m37.07,64.76l-1.41-.1c2.7-39.83,22.75-46.04,32.38-49.03,1.62-.5,2.89-.9,3.72-1.34l.66,1.25c-.95.5-2.28.91-3.97,1.44-9.33,2.89-28.76,8.92-31.39,47.77Z"/><rect class="cls-1" x="60.4" y="82.08" width=".23" height="1.42" transform="translate(-6.96 5.57) rotate(-4.98)"/><path class="cls-1" d="m50.23,83.93c-10.79,0-13.72-2.44-14.86-11.69.02-2.64.12-5.16.29-7.57l1.41.1c-.16,2.39-.26,4.88-.29,7.4,1.24,10.06,3.89,11.19,23.56,9.93.11,0,.39-.01,1.19-.06,1.18-.06,2.25-1.41,2.63-2.02.22-.8,1.94-7.35-.39-11.47-.77-1.37-1.93-2.33-3.45-2.87-6.65.07-11.02-1.45-13.03-4.43-1.68-2.5-1.15-5.25-.81-6.4l-3.07-2.19.38-.57s.75-1.14,6.17-9.45c-.61-16.75,19.71-26.9,22.04-28l.39-.18.6,1.29-.37.18c-2.25,1.07-21.99,10.91-21.23,26.89v.23s-.11.19-.11.19c-3.75,5.76-5.31,8.14-5.93,9.08l2.84,2.03-.21.52s-1.23,3.08.5,5.62c1.68,2.48,5.7,3.79,11.63,3.79.11,0,.22,0,.33,0h.12s.11.04.11.04c1.92.65,3.38,1.84,4.34,3.55,2.78,4.9.59,12.34.49,12.65l-.06.15c-.06.11-1.57,2.67-3.82,2.79-.88.05-1.18.06-1.22.06-4,.25-7.35.42-10.17.42Z"/><path class="cls-1" d="m80.65,70.6c-5.56,0-11.21-.38-16.46-1.36-.58-.11-.96-.66-.85-1.24.11-.58.66-.96,1.24-.85,15.38,2.89,34.31.42,44.22-1.3,1.25-.22,2.34-.96,3-2.03.66-1.07.83-2.38.46-3.59-3.84-12.74-15.1-43.38-37.62-56.81-.18,1.75-.4,4.13-.6,6.3-.21,2.34-.4,4.37-.5,5.17-.08.58-.59.99-1.19.92-.58-.08-.99-.61-.92-1.19.1-.76.29-2.86.49-5.09.27-2.95.57-6.3.79-7.97l.2-1.55,1.37.76c24.13,13.35,36.02,45.61,40.01,58.85.54,1.79.29,3.73-.69,5.32-.98,1.59-2.6,2.69-4.44,3.01-6.69,1.17-17.45,2.66-28.52,2.66Z"/><rect class="cls-1" x="1.12" y="45.51" width="1.42" height="3.16" transform="translate(-7.94 .99) rotate(-9.74)"/><circle class="cls-1" cx="32.9" cy="33.35" r=".99"/><path class="cls-1" d="m32.9,35.05c-.94,0-1.7-.76-1.7-1.7s.76-1.7,1.7-1.7,1.7.76,1.7,1.7-.76,1.7-1.7,1.7Zm0-1.98c-.16,0-.28.13-.28.28s.13.28.28.28.28-.13.28-.28-.13-.28-.28-.28Z"/><circle class="cls-1" cx="59.68" cy="40.64" r=".99"/><path class="cls-1" d="m59.68,42.34c-.94,0-1.7-.76-1.7-1.7s.76-1.7,1.7-1.7,1.7.76,1.7,1.7-.76,1.7-1.7,1.7Zm0-1.98c-.16,0-.28.13-.28.28s.13.28.28.28.28-.13.28-.28-.13-.28-.28-.28Z"/></g></svg>