<?xml version="1.0" encoding="UTF-8"?><svg id="Warstwa_2" xmlns="http://www.w3.org/2000/svg" viewBox="0 0 121.82 107.5"><defs><style>.cls-1,.cls-2{fill:none;}.cls-1,.cls-2,.cls-3{stroke:#231f20;stroke-miterlimit:10;}.cls-1,.cls-3{stroke-width:1.42px;}.cls-2{stroke-linecap:round;stroke-width:2.13px;}.cls-3,.cls-4{fill:#231f20;}</style></defs><g id="Warstwa_1-2"><path class="cls-4" d="m72.82,87.31c-.28,0-.51-.09-.7-.29-.19-.19-.28-.42-.28-.7v-12.86c0-.29.09-.53.28-.71s.42-.28.7-.28h3.78c.95,0,1.78.21,2.52.63.73.42,1.3,1,1.71,1.74.41.74.62,1.59.62,2.56s-.21,1.75-.62,2.47c-.41.72-.98,1.29-1.71,1.69-.73.41-1.57.61-2.52.61h-2.8v4.16c0,.28-.09.51-.27.7-.18.19-.42.29-.71.29Zm.98-6.97h2.8c.58,0,1.09-.13,1.53-.38.44-.25.79-.6,1.04-1.05.25-.44.38-.95.38-1.52,0-.61-.13-1.14-.38-1.61-.25-.46-.6-.83-1.04-1.09-.44-.27-.95-.4-1.53-.4h-2.8v6.04Z"/><path class="cls-4" d="m88.14,87.31c-.35,0-.62-.15-.81-.46-.19-.3-.21-.63-.06-.97l5.31-12.75c.19-.44.5-.67.93-.67.45,0,.76.22.93.67l5.33,12.79c.14.35.12.67-.07.96-.18.29-.46.43-.82.43-.19,0-.37-.05-.54-.16-.17-.11-.29-.26-.37-.45l-4.69-11.7h.53l-4.77,11.7c-.09.2-.22.36-.39.46-.17.1-.34.15-.52.15Zm1-3.27l.76-1.63h7.41l.76,1.63h-8.93Z"/><path class="cls-4" d="m109.32,87.31c-.23,0-.43-.07-.61-.21s-.3-.33-.38-.57l-3.8-12.69c-.13-.42-.12-.75.03-1,.14-.25.38-.37.71-.37.21,0,.41.06.59.18s.3.31.38.56l3.31,11.59h-.42l3.06-11.48c.05-.19.16-.35.34-.47s.38-.19.61-.19c.2,0,.39.05.58.16s.3.27.35.48l3.08,11.5h-.38l3.33-11.69c.13-.43.45-.65.96-.65.35,0,.58.14.68.41.1.27.1.59,0,.96l-3.8,12.67c-.09.24-.22.43-.39.58-.17.15-.37.22-.6.22-.24,0-.44-.08-.61-.23-.17-.15-.29-.34-.37-.55l-3.04-11.82h.45l-3.08,11.8c-.09.24-.22.43-.39.58-.17.15-.37.22-.6.22Z"/><path class="cls-4" d="m72.82,107.31c-.28,0-.51-.09-.7-.29-.19-.19-.28-.42-.28-.7v-12.86c0-.29.09-.53.28-.71s.42-.28.7-.28h3.78c.95,0,1.78.21,2.52.63.73.42,1.3,1,1.71,1.74.41.74.62,1.59.62,2.56s-.21,1.75-.62,2.47c-.41.72-.98,1.29-1.71,1.69-.73.41-1.57.61-2.52.61h-2.8v4.16c0,.28-.09.51-.27.7-.18.19-.42.29-.71.29Zm.98-6.97h2.8c.58,0,1.09-.13,1.53-.38.44-.25.79-.6,1.04-1.05.25-.44.38-.95.38-1.52,0-.61-.13-1.14-.38-1.61-.25-.46-.6-.83-1.04-1.09-.44-.27-.95-.4-1.53-.4h-2.8v6.04Z"/><path class="cls-4" d="m85.53,107.31c-.28,0-.51-.09-.7-.29-.19-.19-.28-.42-.28-.7v-12.86c0-.29.09-.53.28-.71s.42-.28.7-.28h8.55c.29,0,.52.08.7.26.18.17.26.4.26.67s-.09.48-.26.65c-.18.16-.41.25-.7.25h-7.56v4.62h5.43c.29,0,.52.09.7.26.18.17.26.39.26.66s-.09.48-.26.66c-.18.17-.41.26-.7.26h-5.43v4.75h7.56c.29,0,.52.08.7.25.18.17.26.38.26.65s-.09.5-.26.67c-.18.17-.41.26-.7.26h-8.55Z"/><path class="cls-4" d="m98.01,94.29c-.26,0-.48-.09-.65-.26s-.26-.39-.26-.66.09-.48.26-.66c.17-.17.39-.26.65-.26h10.12c.26,0,.48.08.65.26.17.17.26.39.26.66s-.09.48-.26.66-.39.26-.65.26h-10.12Zm5.07,13.01c-.28,0-.51-.09-.7-.29-.19-.19-.28-.42-.28-.7v-13.85h1.97v13.85c0,.28-.09.51-.28.7-.19.19-.42.29-.7.29Z"/><path class="cls-4" d="m116.26,107.5c-.81,0-1.58-.13-2.31-.38-.73-.25-1.37-.61-1.91-1.06-.54-.46-.94-.98-1.19-1.58-.13-.27-.12-.51,0-.74.13-.23.36-.37.67-.44.23-.05.45-.02.67.1s.39.3.5.54c.15.32.4.61.75.87.35.27.77.48,1.26.65.49.16,1.01.25,1.55.25.61,0,1.16-.1,1.67-.29.51-.19.92-.47,1.24-.83.32-.36.47-.81.47-1.34,0-.67-.26-1.27-.78-1.8-.52-.53-1.38-.86-2.58-.99-1.56-.15-2.79-.61-3.69-1.39s-1.34-1.73-1.34-2.87c0-.84.23-1.55.7-2.13.47-.58,1.1-1.03,1.9-1.33.8-.3,1.69-.46,2.68-.46.77,0,1.44.11,2.01.32.57.21,1.08.51,1.5.89s.8.83,1.12,1.35c.18.28.25.54.22.79s-.15.44-.37.58c-.24.15-.5.18-.77.09-.28-.09-.49-.25-.62-.49-.2-.37-.45-.68-.74-.93-.29-.25-.63-.45-1.02-.6-.39-.15-.85-.22-1.38-.22-.93-.01-1.71.16-2.34.52-.63.36-.95.92-.95,1.66,0,.38.1.74.29,1.09.2.35.55.65,1.08.9.52.25,1.28.43,2.26.53,1.5.15,2.67.61,3.51,1.38.84.77,1.26,1.78,1.26,3.03,0,.72-.15,1.35-.44,1.88-.3.53-.69.98-1.19,1.34-.5.36-1.07.63-1.7.81-.64.18-1.3.27-1.98.27Z"/><path class="cls-4" d="m60.39,82.8h-.01c-19.14,1.22-22.95.42-24.31-10.65.03-2.6.13-5.08.29-7.44,3.12-46.09,29.66-46.58,35.73-49.79.09,0,.17,0,.24,0l-.02.34c-2.99,1.42-22.4,11.34-21.63,27.56-5.55,8.52-6.3,9.65-6.3,9.65l2.94,2.1s-4.37,10.53,13.11,10.39c1.9.64,3.15,1.81,3.95,3.23,2.66,4.69.43,12.1.43,12.1,0,0-1.35,2.34-3.24,2.44-.86.05-1.14.06-1.18.06Z"/><path class="cls-4" d="m63.65,49.29c.98-.08.97,1.44,0,1.53-3.07.27-6.09.94-9,1.96-.93.33-1.32-1.14-.4-1.47,3.04-1.07,6.19-1.73,9.4-2.02Z"/><path class="cls-4" d="m63.59,55.63c.87.47.09,1.78-.77,1.32-1.98-1.06-4.31-1.37-6.5-.85-.95.22-1.36-1.25-.4-1.47,2.59-.62,5.32-.26,7.67,1Z"/><path class="cls-4" d="m61.43,59.6c.34.23.49.67.27,1.05-.2.34-.7.5-1.04.27-.74-.49-1.43-.82-2.25-1.06-.86-.25-1.57-.33-2.46-.3-.43,0-.75-.36-.77-.77-.01-.42.37-.75.77-.76,1.93-.06,3.87.5,5.48,1.57Z"/><path class="cls-4" d="m8.86,37.89s2.67,8.38-6.77,10.62c0-.02-.01-.04-.01-.06-.44-2.27-.97-8.4-.97-8.4l6.09-1.82,1.66-.34Z"/><path class="cls-2" d="m2.09,48.51c1.57,6.8,5.66,15.29,16.49,15.37,8.12.07,13.7-.17,17.78.83.1.02.21.04.31.07"/><path class="cls-2" d="m72.37,14.93h-.04c-.07,0-.15,0-.24,0-.61-.03-1.49-.08-2.59-.12-7.48-.33-24.68-.84-30.17,1.74,0,0-10.73,4.34-15.36,17.77-14.57,3.58-23.04,4.55-22.91,5.92.05.52.06,4.05,1.02,8.22"/><path class="cls-1" d="m36.36,64.71c3.12-46.09,29.66-46.58,35.73-49.79"/><line class="cls-1" x1="60.62" y1="82.78" x2="60.39" y2="82.8"/><path class="cls-1" d="m72.69,15.09s-.13.06-.38.18c-2.99,1.42-22.4,11.34-21.63,27.56-5.55,8.52-6.3,9.65-6.3,9.65l2.94,2.1s-4.37,10.53,13.11,10.39c1.9.64,3.15,1.81,3.95,3.23,2.66,4.69.43,12.1.43,12.1,0,0-1.35,2.34-3.24,2.44-.86.05-1.14.06-1.18.06h-.01c-19.14,1.22-22.95.42-24.31-10.65.03-2.6.13-5.08.29-7.44"/><path class="cls-2" d="m72.49,14.75c.23-1.78.9-10.11,1.28-13.06,23.78,13.16,35.54,45.06,39.51,58.23.95,3.15-1.06,6.41-4.3,6.98-9.54,1.66-28.87,4.25-44.6,1.3"/><path class="cls-3" d="m32.9,32.36c-.55,0-.99.44-.99.99s.44.99.99.99.99-.44.99-.99-.44-.99-.99-.99Z"/><circle class="cls-3" cx="59.68" cy="40.64" r=".99"/></g></svg>