<?xml version="1.0" encoding="UTF-8"?><svg id="Warstwa_2" xmlns="http://www.w3.org/2000/svg" viewBox="0 0 114.58 83.93"><defs><style>.cls-1{fill:#231f20;}</style></defs><g id="Warstwa_1-2"><path class="cls-1" d="m63.66,49.29c-3.21.29-6.36.95-9.4,2.02-.92.33-.53,1.8.4,1.47,2.91-1.02,5.93-1.69,9-1.96.97-.09.98-1.61,0-1.53Z"/><path class="cls-1" d="m63.6,55.63c-2.35-1.26-5.08-1.62-7.67-1-.96.22-.55,1.69.4,1.47,2.19-.52,4.52-.21,6.5.85.86.46,1.64-.85.77-1.32Z"/><path class="cls-1" d="m61.44,59.6c-1.61-1.07-3.55-1.63-5.48-1.57-.4.01-.78.34-.77.76.02.41.34.78.77.77.89-.03,1.6.05,2.46.3.82.24,1.51.57,2.25,1.06.34.23.84.07,1.04-.27.22-.38.07-.82-.27-1.05Z"/><path class="cls-1" d="m114.31,59.61c-3.99-13.25-15.89-45.5-40.01-58.85l-1.37-.76-.2,1.55c-.22,1.68-.52,5.04-.79,8-.15,1.67-.3,3.27-.4,4.28-.54-.03-1.2-.06-1.98-.09-11.16-.49-25.54-.57-30.62,1.82-.45.18-10.95,4.56-15.77,17.86-5.15,1.26-9.49,2.18-13,2.92C2.03,38.06-.16,38.52,0,40.33c0,.07.01.21.02.4.05,1.19.19,4.34,1.02,7.95,0,0,0,.01,0,.02,0,.01,0,.03,0,.04,1.7,7.34,6.11,16.11,17.52,16.19,1.61.01,3.13.02,4.55.02,5.42,0,9.4.02,12.48.68-.13,2.13-.21,4.32-.23,6.6,1.14,9.25,4.07,11.69,14.86,11.69,2.82,0,6.17-.17,10.16-.42.04,0,.33-.01,1.22-.06,2.25-.12,3.75-2.68,3.82-2.79l.06-.15c.08-.28,1.83-6.24.23-11,4.81.79,9.9,1.1,14.92,1.1,11.08,0,21.83-1.5,28.52-2.66,1.84-.32,3.46-1.42,4.44-3.01.98-1.59,1.23-3.53.69-5.32Zm-91.17,3.22c-1.42,0-2.93,0-4.54-.02-10.02-.07-13.94-7.95-15.46-14.55,0,0,0-.01,0-.02,0,0,0-.02,0-.03,6.54-2.06,6.31-7.4,5.94-9.48.51-.11,1.02-.22,1.54-.33,3.65-.77,8.19-1.74,13.62-3.07l.56-.14.19-.55c4.41-12.78,14.65-17.09,14.81-17.16,3.54-1.66,13.37-2.27,27.75-1.72-9.71,3.02-28.82,9.6-31.78,47.71-3.25-.64-7.25-.66-12.62-.66Zm88.67.98c-.66,1.07-1.75,1.82-3,2.04-9.91,1.72-28.84,4.19-44.22,1.3-.02,0-.04,0-.06,0-.95-1.33-2.23-2.31-3.86-2.86l-.11-.04h-.12c-6.11.07-10.24-1.26-11.95-3.79-1.72-2.54-.51-5.59-.5-5.62l.21-.52-2.84-2.03c.62-.94,2.18-3.33,5.93-9.08l.12-.19v-.23c-.76-15.74,18.36-25.51,21.09-26.83.34-.04.61-.23.77-.51.14-.16.26-.34.28-.57.1-.8.29-2.81.5-5.14.2-2.17.42-4.56.6-6.33,22.52,13.43,33.78,44.07,37.62,56.81.36,1.21.19,2.52-.47,3.59Z"/><path class="cls-1" d="m32.9,31.65c-.94,0-1.7.76-1.7,1.7s.76,1.7,1.7,1.7,1.7-.76,1.7-1.7-.76-1.7-1.7-1.7Z"/><circle class="cls-1" cx="59.68" cy="40.64" r="1.7"/></g></svg>