<?xml version="1.0" encoding="UTF-8"?><svg id="Warstwa_2" xmlns="http://www.w3.org/2000/svg" viewBox="0 0 37.46 28.17"><defs><style>.cls-1{fill:#717071;}.cls-2{fill:#ef4450;}</style></defs><g id="Warstwa_1-2"><g id="Warstwa_1-2-5"><g id="Group_225-3"><g id="Path_401-3"><path class="cls-1" d="m30.29,28.17s-.07,0-.11,0c-.08,0-.16,0-.24-.02H3.7C2.43,28.01,0,26.81,0,23.23V7.08c-.02-.43-.06-2.44,1.17-3.77.67-.73,1.6-1.11,2.67-1.11h26.5c1.23.14,3.56,1.09,3.56,3.71v18.69c-.03,1.01-.43,1.9-1.13,2.57-.68.64-1.56.99-2.48.99Zm-26.33-2.8h26.21c.31.02.53-.06.69-.21.16-.15.26-.36.26-.59V5.92c0-.69-.72-.88-1.03-.93H3.85c-.38,0-.54.12-.63.22-.38.41-.46,1.35-.43,1.74v16.29c0,1.7.84,2.06,1.18,2.14Z"/></g><g id="Path_402-3"><path class="cls-1" d="m17.32,21.25c-1.51,0-3.03-.51-4.27-1.52L.51,9.31l1.78-2.14,12.53,10.42c1.44,1.18,3.54,1.18,4.99,0,4.2-3.2,11.71-10,11.79-10.07l1.87,2.06c-.31.28-7.68,6.95-11.93,10.19-1.21.99-2.71,1.49-4.21,1.49Z"/></g></g></g><g id="Ellipse_31"><circle class="cls-2" cx="32.46" cy="5" r="5"/></g></g></svg>