<?xml version="1.0" encoding="UTF-8"?><svg id="Warstwa_2" xmlns="http://www.w3.org/2000/svg" viewBox="0 0 23.25 26.55"><defs><style>.cls-1{fill:#717071;}</style></defs><g id="Warstwa_1-2"><g id="Warstwa_1-2-3"><g id="Ellipse_17"><path class="cls-1" d="m11.58,13.72c-3.78,0-6.86-3.08-6.86-6.86S7.8,0,11.58,0s6.86,3.08,6.86,6.86-3.08,6.86-6.86,6.86Zm0-10.72c-2.13,0-3.86,1.73-3.86,3.86s1.73,3.86,3.86,3.86,3.86-1.73,3.86-3.86-1.73-3.86-3.86-3.86Z"/></g><g id="Path_407"><path class="cls-1" d="m21.75,26.55H1.5c-.42,0-.82-.17-1.1-.48-.28-.31-.43-.72-.39-1.14.63-7.84,7.86-9.57,11.61-9.39,3.96,0,7.01,1.09,9.07,3.21,2.65,2.74,2.57,6.2,2.57,6.35-.03.81-.69,1.45-1.5,1.45Zm-18.47-3h16.75c-.22-.82-.66-1.85-1.54-2.75-1.48-1.5-3.8-2.27-6.92-2.27-.02,0-.05,0-.07,0h0c-.3,0-6.71-.24-8.22,5.01Z"/></g></g></g></svg>