<?xml version="1.0" encoding="UTF-8"?><svg id="Warstwa_2" xmlns="http://www.w3.org/2000/svg" xmlns:xlink="http://www.w3.org/1999/xlink" viewBox="0 0 24 30.11"><defs><style>.cls-1{fill:#717071;}.cls-2{fill:#ef4450;}.cls-3{clip-path:url(#clippath);}.cls-4{fill:none;}</style><clipPath id="clippath"><rect class="cls-4" x="0" y="2" width="23.6" height="28.11"/></clipPath></defs><g id="Warstwa_1-2"><g id="Group_247-2"><g class="cls-3"><g id="Group_246-3"><g id="Path_459-3"><path class="cls-1" d="m22.19,24.82H1.42c-.57,0-1.08-.34-1.3-.86s-.12-1.12.27-1.54c.1-.1,2.52-2.81,2.47-8.47-.03-3.39.92-5.99,2.82-7.71,1.62-1.48,3.56-1.95,4.89-2.08v-.74c0-.78.63-1.42,1.42-1.42h0c.78,0,1.42.63,1.42,1.42v.79c4.73.6,7.36,3.94,7.44,9.52.06,3.14.94,6.24,2.55,8.95.26.44.26.98.01,1.42-.25.44-.72.72-1.23.72Zm-18.19-2.84h15.86c-1.15-2.58-1.78-5.38-1.84-8.21-.06-4.42-1.94-6.65-5.73-6.82-.04,0-.07,0-.11,0-.11.02-.23.02-.34,0-.01,0-2.52-.21-4.28,1.4-1.26,1.16-1.89,3.04-1.87,5.58.03,3.65-.85,6.32-1.7,8.05Z"/></g><g id="Path_460-3"><path class="cls-1" d="m8.45,26.58h7.07s-.33,3.46-3.33,3.52c-3,.06-3.74-3.52-3.74-3.52"/></g></g></g></g><g id="Ellipse_32"><circle class="cls-2" cx="19" cy="5" r="5"/></g></g></svg>