<?xml version="1.0" encoding="UTF-8"?><svg id="Warstwa_2" xmlns="http://www.w3.org/2000/svg" xmlns:xlink="http://www.w3.org/1999/xlink" viewBox="0 0 23.41 30.19"><defs><style>.cls-1{fill:#ef4450;}.cls-2{clip-path:url(#clippath);}.cls-3{fill:none;}</style><clipPath id="clippath"><rect class="cls-3" x="0" y="0" width="23.41" height="30.19"/></clipPath></defs><g id="Warstwa_1-2"><g id="Group_360"><g class="cls-2"><g id="Group_248-2"><g id="Path_461-2"><path class="cls-1" d="m11.71,30.19c-.9,0-1.79-.39-2.38-1.15C5.84,24.68,0,16.63,0,11.7,0,5.25,5.25,0,11.7,0s11.7,5.25,11.7,11.7c0,4.67-5.07,12-9.32,17.34-.15.18-.31.35-.5.5-.56.44-1.22.65-1.88.65Zm0-27.35C6.81,2.84,2.83,6.81,2.83,11.7c0,2.92,3.25,8.74,8.71,15.57.07.09.2.11.29.04l.04-.04c5.45-6.84,8.71-12.66,8.71-15.57,0-4.89-3.98-8.87-8.87-8.87Zm0,13.71h0c-1.29,0-2.51-.51-3.43-1.42-.92-.92-1.42-2.13-1.42-3.43,0-2.67,2.18-4.84,4.85-4.84h0c2.67,0,4.84,2.18,4.84,4.84,0,1.29-.5,2.51-1.42,3.43s-2.13,1.42-3.42,1.42Zm0-2.84h0c.54,0,1.04-.21,1.42-.59s.59-.88.59-1.42c0-1.11-.9-2.01-2.01-2.01h0c-1.11,0-2.01.9-2.01,2.01,0,.54.21,1.04.59,1.42.38.38.88.59,1.42.59Z"/></g></g></g></g></g></svg>