<?xml version="1.0" encoding="UTF-8"?><svg id="Warstwa_2" xmlns="http://www.w3.org/2000/svg" viewBox="0 0 30.02 25.21"><defs><style>.cls-1{fill:#ef4450;}</style></defs><g id="Warstwa_1-2"><g id="heart-regular-2"><path class="cls-1" d="m14.31,2.41l.65.69.7-.69C17.62.53,20.35-.32,23.02.11c4.01.62,6.97,4.06,7,8.12v.33c0,2.4-1.02,4.69-2.79,6.3l-10.59,9.72c-.92.84-2.33.84-3.25,0L2.79,14.87C1.02,13.25,0,10.96,0,8.56v-.33C.03,4.17,2.99.74,7,.11c2.66-.43,5.37.42,7.31,2.3-.05,0,0,0,0,0h0Zm.65,4.6l-2.64-2.69c-1.3-1.22-3.1-1.76-4.86-1.48-2.66.42-4.63,2.7-4.65,5.39v.33c0,1.63.69,3.19,1.9,4.28l10.3,9.44,10.31-9.44c1.2-1.1,1.89-2.65,1.9-4.28v-.33c-.02-2.69-1.99-4.98-4.65-5.39-1.76-.29-3.55.26-4.86,1.48l-2.74,2.69Z"/></g></g></svg>