<?xml version="1.0" encoding="UTF-8"?><svg id="Warstwa_2" xmlns="http://www.w3.org/2000/svg" viewBox="0 0 33.91 25.96"><defs><style>.cls-1{fill:#717071;}</style></defs><g id="Warstwa_1-2"><path class="cls-1" d="m30.35,0H3.85c-1.07,0-2,.38-2.67,1.1C-.05,2.43-.02,4.45,0,4.88v16.15c0,3.58,2.42,4.77,3.7,4.91h26.24c.08.01.16.02.24.02.04,0,.07,0,.11,0,.93,0,1.81-.35,2.48-.99.7-.66,1.11-1.56,1.13-2.57V3.71C33.91,1.09,31.58.14,30.35,0ZM3.22,3c.1-.1.25-.22.63-.22h26.25c.31.05,1.03.25,1.03.93v2.01c-1.69,1.52-7.72,6.91-11.32,9.65-1.45,1.19-3.55,1.19-4.99,0L2.78,5.38v-.64c-.02-.39.05-1.33.43-1.74Zm27.65,19.96c-.16.15-.36.25-.67.22H3.97c-.34-.09-1.18-.45-1.18-2.15v-12.03s10.26,8.53,10.26,8.53c1.24,1.01,2.76,1.52,4.27,1.52s3-.5,4.21-1.49c2.82-2.15,7.01-5.8,9.6-8.1v12.91c0,.22-.1.43-.26.59Z"/></g></svg>